<?xml version="1.0" encoding="UTF-8"?>
<svg width="180" height="60" viewBox="0 0 180 60" xmlns="http://www.w3.org/2000/svg">
  <!-- Background Circle -->
  <circle cx="30" cy="30" r="25" fill="#b48c5a" opacity="0.1"/>
  
  <!-- Decorative Elements -->
  <path d="M10,45 Q20,35 30,45 Q40,35 50,45" stroke="#b48c5a" stroke-width="1.5" fill="none" opacity="0.6"/>
  <circle cx="15" cy="40" r="2" fill="#b48c5a" opacity="0.7"/>
  <circle cx="45" cy="40" r="1.5" fill="#b48c5a" opacity="0.7"/>
  
  <!-- Main Icon - Traditional Clothing Symbol -->
  <g transform="translate(20, 15)">
    <!-- Sherwani Outline -->
    <path d="M5,5 L15,5 Q18,8 18,12 L18,25 Q15,28 10,28 Q5,28 2,25 L2,12 Q2,8 5,5 Z" 
          fill="none" stroke="#b48c5a" stroke-width="2"/>
    <!-- Collar -->
    <path d="M6,5 L8,8 L12,8 L14,5" fill="none" stroke="#b48c5a" stroke-width="1.5"/>
    <!-- Buttons -->
    <circle cx="10" cy="12" r="1" fill="#b48c5a"/>
    <circle cx="10" cy="16" r="1" fill="#b48c5a"/>
    <circle cx="10" cy="20" r="1" fill="#b48c5a"/>
  </g>
  
  <!-- Company Name -->
  <text x="65" y="25" font-family="'Poppins', sans-serif" font-size="16" font-weight="600" fill="#b48c5a">
    Sherwani
  </text>
  <text x="65" y="42" font-family="'Poppins', sans-serif" font-size="14" font-weight="400" fill="#8a6b42">
    Rentals
  </text>
  
  <!-- Decorative Line -->
  <line x1="65" y1="47" x2="140" y2="47" stroke="#b48c5a" stroke-width="1" opacity="0.5"/>
  
  <!-- Small Decorative Elements -->
  <circle cx="145" cy="20" r="1.5" fill="#b48c5a" opacity="0.6"/>
  <circle cx="150" cy="35" r="1" fill="#b48c5a" opacity="0.6"/>
</svg>
